<svg width="32" height="26" viewBox="0 0 32 26" fill="none" xmlns="http://www.w3.org/2000/svg">
<path d="M31.7188 1.42467C31.187 0.431835 30.2889 0.00230925 29.1294 0.00230925H6.67035C5.37903 0.00230925 4.08854 -0.00394978 2.79722 0.003874C1.16534 0.0132625 0.00924148 1.07886 0.00506785 2.59511C-0.00327939 5.87484 0.000894231 9.15457 0.00423313 12.4343C0.00506785 13.0148 0.173682 13.5508 0.559325 14.0155C1.14781 14.7251 1.93829 15.0036 2.87986 15.0036C11.6261 14.9989 20.3724 15.0005 29.1186 15.0005C29.233 15.0005 29.3481 14.9997 29.4617 14.9927C30.2496 14.9418 30.8966 14.639 31.4032 14.0648C31.738 13.6853 31.8882 13.237 32.0001 12.7699V2.22426C31.9082 1.95669 31.8515 1.67269 31.7188 1.42467ZM3.76383 1.01784H28.2196C28.2196 1.63357 28.2889 2.25165 28.2012 2.84938C28.1036 3.51441 27.4875 3.94159 26.7705 3.99009C26.6562 3.99792 26.5418 4.00105 26.4274 4.00105C19.4725 4.00183 12.5168 3.99948 5.56183 4.00496C4.83562 4.00574 4.25549 3.79684 3.90991 3.16703C3.84397 3.04733 3.77385 2.91276 3.77051 2.78288C3.75549 2.20001 3.76383 1.61714 3.76383 1.01784ZM28.2355 13.9858H3.75549V13.5265H28.2355V13.9858ZM28.2471 12.482H3.75632V12.0236H28.2471V12.482ZM28.2488 10.9893H3.76634V10.5214H28.2488V10.9893ZM30.935 12.3717C30.9341 13.2065 30.46 13.7972 29.667 13.9639C29.5685 13.985 29.4658 13.9889 29.3289 14.0045V13.6595C29.3289 12.5071 29.3306 11.3554 29.3289 10.203C29.3281 9.66468 29.1562 9.50117 28.5869 9.50117C20.1921 9.50038 11.7972 9.50038 3.40156 9.50117C2.85148 9.50117 2.67535 9.66859 2.67368 10.1865C2.67201 11.339 2.67368 12.4914 2.67368 13.6431V13.9576C2.07852 14.0413 1.41241 13.6345 1.19121 13.0461C1.11609 12.8474 1.07268 12.6276 1.07268 12.4171C1.06517 9.14597 1.06433 5.87484 1.06851 2.60372C1.07018 1.68521 1.69205 1.06165 2.67368 1.0241C2.67368 1.13598 2.67034 1.24707 2.67368 1.35817C2.69038 1.90349 2.64029 2.46132 2.73963 2.99334C2.96417 4.1896 4.02093 4.95555 5.39989 5.00249C5.47252 5.00484 5.54597 5.00406 5.61859 5.00406C12.5451 5.00406 19.4717 5.00249 26.3982 5.0064C27.152 5.0064 27.8423 4.85775 28.4191 4.37502C28.9475 3.93376 29.263 3.38453 29.3072 2.72107C29.3373 2.26338 29.3239 1.80334 29.3289 1.34487C29.3306 1.24081 29.3289 1.13676 29.3289 1.03427C30.0735 1.02018 30.6921 1.46379 30.8699 2.1249C30.9158 2.29311 30.9325 2.47228 30.9325 2.64597C30.9366 5.88814 30.9366 9.12954 30.935 12.3717Z" fill="white"/>
<path d="M12.1102 20.6211C12.7145 21.4317 12.9708 22.3119 12.6753 23.2773C12.5684 23.627 12.379 23.9642 12.1728 24.2748C11.9299 24.6394 11.7529 25.0079 11.7387 25.4437C11.7304 25.7215 11.5977 25.9382 11.278 25.9875C11.0367 26.025 10.8406 25.9288 10.7412 25.7222C10.6836 25.6041 10.6845 25.4609 10.6594 25.3287C10.6978 24.6731 10.9958 24.1254 11.3739 23.5997C11.7596 23.0645 11.8347 22.4723 11.6135 21.8675C11.5175 21.6046 11.3431 21.3644 11.1861 21.1242C10.5751 20.1877 10.5083 19.2207 10.9866 18.2216C11.0542 18.0808 11.1377 17.9423 11.2346 17.8179C11.5442 17.4204 11.7187 16.9854 11.7479 16.491C11.7654 16.1874 12.0175 15.9895 12.3005 16.0082C12.5993 16.0294 12.8122 16.2617 12.7988 16.5794C12.7771 17.1036 12.6361 17.5965 12.3397 18.0495C12.1561 18.3311 11.9474 18.6112 11.8406 18.9203C11.6335 19.5149 11.722 20.1001 12.1102 20.6211Z" fill="white"/>
<path d="M21.3139 22.7641C21.2621 23.3235 21.0518 23.8258 20.7087 24.2788C20.4424 24.6308 20.2972 25.015 20.2638 25.4453C20.2354 25.8154 19.9958 26.0289 19.6845 25.9961C19.3623 25.9624 19.1862 25.7168 19.2054 25.3522C19.2396 24.6958 19.5292 24.1387 19.9049 23.5965C20.4057 22.8744 20.384 22.1296 19.9032 21.3934C19.7513 21.1618 19.5877 20.9317 19.475 20.683C19.0418 19.7269 19.1185 18.7943 19.7037 17.9157C19.9933 17.4807 20.2596 17.0559 20.273 16.5184C20.2805 16.1929 20.5459 15.9879 20.8339 16.009C21.1703 16.0325 21.3356 16.2688 21.3197 16.6991C21.2938 17.1857 21.1344 17.6309 20.8723 18.051C20.6845 18.3523 20.4758 18.6527 20.3615 18.9789C20.1628 19.5462 20.2663 20.1032 20.6286 20.5977C21.1085 21.2533 21.3882 21.9559 21.3139 22.7641Z" fill="white"/>
<path d="M16.6177 24.0073C16.298 24.4931 15.9925 24.9665 15.9825 25.5658C15.9783 25.8271 15.7029 26.0125 15.4449 25.9992C15.1661 25.9851 14.9474 25.777 14.9424 25.4938C14.9332 24.9657 15.0743 24.4712 15.3631 24.0166C15.485 23.8234 15.6361 23.645 15.7429 23.4463C16.1202 22.7445 16.101 22.0474 15.6294 21.3933C15.0877 20.6423 14.7746 19.8356 15.0159 18.9375C15.1369 18.4852 15.4274 18.0753 15.6169 17.6364C15.763 17.2992 15.9132 16.9541 15.9858 16.5989C16.0643 16.221 16.2513 15.9824 16.5726 16.0098C16.9024 16.0372 17.0768 16.2758 17.0535 16.7875C17.0259 17.1693 16.8848 17.6324 16.6002 18.0534C16.4825 18.2263 16.3506 18.3921 16.2529 18.5744C15.8882 19.2559 15.9349 19.9178 16.3381 20.582C16.5827 20.9849 16.8306 21.4019 16.9666 21.8424C17.1995 22.5966 17.0568 23.3391 16.6177 24.0073Z" fill="white"/>
<path d="M18.126 8.49741C18.1311 8.79706 17.8923 9.00439 17.4975 9.00673C16.1444 9.01221 14.7922 9.01221 13.4391 9.00673C13.0409 9.00439 12.808 8.80253 12.8122 8.49819C12.8164 8.19228 13.0434 8.01311 13.4541 8.01077C14.1302 8.00607 14.8072 8.0092 15.4833 8.0092C16.1494 8.0092 16.8147 8.00607 17.4808 8.01077C17.8907 8.01311 18.1202 8.19306 18.126 8.49741Z" fill="white"/>
<path d="M27.7271 6.48904C27.7379 6.75583 27.5276 6.96316 27.1995 6.99994C27.1077 7.01011 27.0134 7.0015 26.9199 7.0015V7.00854C26.8781 7.00854 26.8364 7.00932 26.7955 7.00854C26.3773 6.99446 26.1277 6.79808 26.1377 6.49295C26.1469 6.19565 26.3832 6.01805 26.7905 6.00788C26.9257 6.00397 27.0618 6.0024 27.1953 6.01414C27.5134 6.04074 27.7162 6.22695 27.7271 6.48904Z" fill="white"/>
<path d="M29.4232 6.97882C29.1995 7.00698 28.9666 7.00855 28.7421 6.98508C28.4516 6.95535 28.2646 6.73785 28.2738 6.4914C28.2821 6.23791 28.4741 6.05248 28.7713 6.01884C28.8848 6.00554 28.9992 6.00789 29.1135 6.00241C29.207 6.00867 29.3005 6.01102 29.3932 6.02197C29.6861 6.05639 29.8322 6.23243 29.8598 6.49061C29.8848 6.72142 29.692 6.94518 29.4232 6.97882Z" fill="white"/>
</svg>
