<svg width="43" height="43" viewBox="0 0 43 43" fill="none" xmlns="http://www.w3.org/2000/svg">
<path d="M29.8385 25.6083C27.5191 23.5901 24.4898 22.3685 21.1717 22.3685C17.8536 22.3685 14.8243 23.5901 12.5008 25.6124C12.4366 25.6702 12.3973 25.7507 12.3912 25.8369C12.385 25.923 12.4125 26.0082 12.4678 26.0746L13.9535 27.8451C14.0732 27.9854 14.2837 28.0019 14.424 27.8823C16.2234 26.2975 18.584 25.34 21.1717 25.34C23.7593 25.34 26.12 26.2975 27.9194 27.8781C28.0597 27.9978 28.2702 27.9813 28.3899 27.841L29.8756 26.0705C29.9912 25.9343 29.9747 25.7279 29.8385 25.6083ZM34.6836 19.8263C31.0229 16.7764 26.314 14.9399 21.1717 14.9399C16.0294 14.9399 11.3205 16.7764 7.65565 19.8263C7.5886 19.8828 7.54664 19.9636 7.53891 20.051C7.53118 20.1383 7.55831 20.2252 7.61438 20.2926L9.10011 22.0631C9.21567 22.2035 9.42615 22.22 9.56234 22.1044C12.7113 19.4879 16.7599 17.9113 21.1717 17.9113C25.5835 17.9113 29.6321 19.4879 32.7769 22.1044C32.9172 22.22 33.1236 22.2035 33.2392 22.0631L34.7249 20.2926C34.8404 20.1523 34.8239 19.9418 34.6836 19.8263ZM39.4999 14.0897C34.4896 9.97917 28.0762 7.5112 21.0892 7.5112C14.1475 7.5112 7.77533 9.94615 2.77749 14.0072C2.74315 14.0347 2.71468 14.0689 2.69376 14.1077C2.67283 14.1464 2.65987 14.189 2.65564 14.2328C2.65141 14.2767 2.65599 14.3209 2.66912 14.363C2.68225 14.405 2.70366 14.444 2.73209 14.4776L4.21783 16.2481C4.33338 16.3843 4.53973 16.405 4.67593 16.2935C9.16202 12.6576 14.8697 10.4827 21.0892 10.4827C27.354 10.4827 33.0988 12.6906 37.5973 16.372C37.7376 16.4875 37.944 16.4669 38.0595 16.3266L39.5453 14.5561C39.6649 14.4157 39.6443 14.2053 39.4999 14.0897ZM18.4891 32.1083C18.4891 32.8089 18.7674 33.4807 19.2627 33.976C19.7581 34.4714 20.4299 34.7497 21.1304 34.7497C21.8309 34.7497 22.5028 34.4714 22.9981 33.976C23.4934 33.4807 23.7717 32.8089 23.7717 32.1083C23.7717 31.4078 23.4934 30.736 22.9981 30.2407C22.5028 29.7453 21.8309 29.467 21.1304 29.467C20.4299 29.467 19.7581 29.7453 19.2627 30.2407C18.7674 30.736 18.4891 31.4078 18.4891 32.1083Z" fill="white"/>
</svg>
