<svg width="32" height="32" viewBox="0 0 32 32" fill="none" xmlns="http://www.w3.org/2000/svg">
<path d="M0 9C0 8.20435 0.31607 7.44129 0.87868 6.87868C1.44129 6.31607 2.20435 6 3 6H29C29.7956 6 30.5587 6.31607 31.1213 6.87868C31.6839 7.44129 32 8.20435 32 9V12C32 12.2652 31.8946 12.5196 31.7071 12.7071C31.5196 12.8946 31.2652 13 31 13C30.2044 13 29.4413 13.3161 28.8787 13.8787C28.3161 14.4413 28 15.2044 28 16C28 16.7956 28.3161 17.5587 28.8787 18.1213C29.4413 18.6839 30.2044 19 31 19C31.2652 19 31.5196 19.1054 31.7071 19.2929C31.8946 19.4804 32 19.7348 32 20V23C32 23.7956 31.6839 24.5587 31.1213 25.1213C30.5587 25.6839 29.7956 26 29 26H3C2.20435 26 1.44129 25.6839 0.87868 25.1213C0.31607 24.5587 0 23.7956 0 23L0 20C0 19.7348 0.105357 19.4804 0.292893 19.2929C0.48043 19.1054 0.734784 19 1 19C1.79565 19 2.55871 18.6839 3.12132 18.1213C3.68393 17.5587 4 16.7956 4 16C4 15.2044 3.68393 14.4413 3.12132 13.8787C2.55871 13.3161 1.79565 13 1 13C0.734784 13 0.48043 12.8946 0.292893 12.7071C0.105357 12.5196 0 12.2652 0 12V9ZM8 11C8 11.2652 8.10536 11.5196 8.29289 11.7071C8.48043 11.8946 8.73478 12 9 12H23C23.2652 12 23.5196 11.8946 23.7071 11.7071C23.8946 11.5196 24 11.2652 24 11C24 10.7348 23.8946 10.4804 23.7071 10.2929C23.5196 10.1054 23.2652 10 23 10H9C8.73478 10 8.48043 10.1054 8.29289 10.2929C8.10536 10.4804 8 10.7348 8 11ZM8 21C8 21.2652 8.10536 21.5196 8.29289 21.7071C8.48043 21.8946 8.73478 22 9 22H23C23.2652 22 23.5196 21.8946 23.7071 21.7071C23.8946 21.5196 24 21.2652 24 21C24 20.7348 23.8946 20.4804 23.7071 20.2929C23.5196 20.1054 23.2652 20 23 20H9C8.73478 20 8.48043 20.1054 8.29289 20.2929C8.10536 20.4804 8 20.7348 8 21ZM8 16C8 16.5304 8.21071 17.0391 8.58579 17.4142C8.96086 17.7893 9.46957 18 10 18H22C22.5304 18 23.0391 17.7893 23.4142 17.4142C23.7893 17.0391 24 16.5304 24 16C24 15.4696 23.7893 14.9609 23.4142 14.5858C23.0391 14.2107 22.5304 14 22 14H10C9.46957 14 8.96086 14.2107 8.58579 14.5858C8.21071 14.9609 8 15.4696 8 16Z" fill="#888888"/>
</svg>
