<svg width="264" height="43" viewBox="0 0 264 43" fill="none" xmlns="http://www.w3.org/2000/svg">
<g clip-path="url(#clip0_283_6715)">
<path d="M142.908 22.2257C142.456 24.809 140.677 26.1006 137.566 26.1006H48.0964L43.6488 38.6908H34.9492L39.4439 26.1006H31.2743C26.6988 37.3519 19.4883 42.9842 9.64309 43C6.98355 43 4.80021 42.4757 3.09307 41.4271C1.03102 40.1669 0 38.279 0 35.761C0 33.792 0.660393 31.8073 1.98118 29.8045C5.31684 24.7527 11.4468 22.2257 20.3734 22.2257H23.9022L31.3709 0.942854H40.0481L32.4581 22.2257H40.7714L46.9576 4.62426H55.6819L49.4464 22.2257H142.908ZM22.5252 26.0984H21.8244C18.6505 26.0984 15.7978 26.913 13.2685 28.5444C10.3529 30.4166 8.89509 32.8536 8.89509 35.8577C8.89509 37.9392 9.82054 38.9811 11.6737 38.9811C13.994 38.9811 16.2897 37.3519 18.5606 34.0913C20.2543 31.652 21.5751 28.9877 22.5252 26.0984ZM55.2731 37.3811C53.6468 36.373 52.5035 34.9554 51.8476 33.1237C51.194 31.2875 51.1019 29.197 51.5713 26.8432C52.2115 23.6231 53.548 20.682 55.5809 18.0155C57.6137 15.3512 60.1093 13.2405 63.0631 11.681C66.0124 10.1261 69.1122 9.34753 72.3602 9.34753C74.7772 9.34753 76.8213 9.86059 78.4812 10.8777C80.1434 11.8993 81.3205 13.3192 82.0145 15.1352C82.7064 16.9511 82.8142 19.0574 82.338 21.4449C81.6978 24.6605 80.3321 27.606 78.2521 30.2681C76.1654 32.9324 73.6383 35.0386 70.6733 36.5733C67.706 38.1192 64.6017 38.8843 61.3514 38.8843C58.9345 38.8843 56.9061 38.3847 55.2731 37.3811ZM68.8179 32.2146C70.6845 31.0917 72.2681 29.6043 73.5687 27.7501C74.8693 25.9004 75.7296 23.9201 76.1496 21.8072C76.6258 19.4196 76.3203 17.5744 75.2309 16.276C74.146 14.9777 72.5781 14.3296 70.543 14.3296C68.5371 14.3296 66.6368 14.8921 64.8421 16.015C63.0473 17.1424 61.5177 18.6501 60.2643 20.5335C59.0086 22.4215 58.1663 24.4377 57.7395 26.5822C57.2768 28.9022 57.5485 30.6979 58.5549 31.9828C59.5612 33.2609 61.0684 33.9 63.0698 33.9C65.0353 33.9 66.9558 33.3374 68.8179 32.2146ZM91.889 30.4751C91.7205 30.9589 91.6239 31.2695 91.597 31.409C91.4532 32.1358 91.5745 32.6624 91.9586 32.9931C92.3382 33.3217 93.0503 33.4882 94.0881 33.4882H97.7135L95.8514 38.4185H91.1859C88.9038 38.4185 87.2505 37.9594 86.224 37.0436C85.1975 36.1277 84.8852 34.6651 85.2851 32.6556C85.4356 31.895 85.649 31.1682 85.9275 30.4774L91.88 14.6401H88.5107L90.3032 9.81108H93.7219L96.3792 2.70255H102.341L99.6834 9.81108H106.573L104.785 14.6401H97.8438L91.889 30.4751ZM132.42 12.3584C134.143 14.3633 134.669 17.0659 133.995 20.4548C133.837 21.2491 133.559 22.2032 133.166 23.3126C132.878 24.0732 132.452 25.007 131.883 26.1119H110.066C109.982 26.3594 109.895 26.7217 109.798 27.2055C109.392 29.2442 109.697 30.8712 110.717 32.0818C111.737 33.2924 113.266 33.8977 115.306 33.8977C118.516 33.8977 121.252 32.5656 123.511 29.9013H129.884C128.047 32.5318 125.684 34.6853 122.79 36.3663C119.9 38.0427 116.78 38.8798 113.428 38.8798C111.045 38.8798 109.048 38.414 107.437 37.4801C105.829 36.5463 104.695 35.2029 104.043 33.4567C103.392 31.7105 103.295 29.6605 103.765 27.3068C103.965 26.3054 104.286 25.2298 104.715 24.0867C105.822 21.1478 107.39 18.56 109.421 16.3278C111.456 14.0956 113.776 12.3719 116.386 11.1612C118.992 9.9506 121.694 9.34528 124.493 9.34528C128.051 9.34753 130.695 10.3489 132.42 12.3584ZM127.921 20.5088C128.3 18.6051 127.966 17.0996 126.93 15.9903C125.89 14.8809 124.365 14.3296 122.364 14.3296C120.257 14.3296 118.217 15.0024 116.256 16.3548C114.295 17.705 112.774 19.5412 111.69 21.8567H127.546C127.743 21.2356 127.867 20.7855 127.921 20.5088ZM153.609 0L139.172 38.4185H133.265L147.701 0H153.609ZM187.972 0L173.598 38.5693H167.293L173.623 21.5304H155.541L149.211 38.5693H142.906L157.281 0H163.587L157.387 16.6473H175.471L181.667 0H187.972ZM215.762 7.99063L204.394 38.5693H198.089L199.405 34.9621C197.943 36.22 196.283 37.2101 194.427 37.9302C192.572 38.6525 190.739 39.0148 188.933 39.0148C185.725 39.0148 183.333 38.1462 181.756 36.4068C180.182 34.6673 179.708 32.2056 180.332 29.0237C180.498 28.1731 180.788 27.156 181.206 25.9701L187.889 7.99063H194.138L187.808 25.0273C187.457 26.0646 187.237 26.805 187.152 27.246C186.752 29.2825 187.01 30.8374 187.922 31.9085C188.837 32.9819 190.288 33.5197 192.28 33.5197C194.603 33.5197 196.712 32.8244 198.605 31.4382C200.499 30.0521 201.964 28.0448 202.995 25.4166L209.457 7.99288H215.762V7.99063ZM241.522 10.0721C243.083 11.7936 243.548 14.2643 242.917 17.4822C242.757 18.2968 242.465 19.3139 242.041 20.5358L235.293 38.5715H229.042L235.439 21.4786C235.79 20.4413 236.01 19.7009 236.095 19.2599C236.495 17.2257 236.237 15.6707 235.325 14.5974C234.41 13.524 232.959 12.9862 230.967 12.9862C228.57 12.9862 226.409 13.7175 224.482 15.1779C222.555 16.6406 221.101 18.7401 220.122 21.4786L220.156 21.3121L213.725 38.5715H207.42L218.788 7.99288H225.093L223.786 11.5438C225.286 10.2881 226.964 9.29578 228.822 8.5757C230.677 7.85337 232.526 7.49108 234.37 7.49108C237.578 7.49108 239.961 8.35067 241.522 10.0721ZM248.382 30.0791C248.207 30.5989 248.106 30.9297 248.076 31.0782C247.924 31.8545 248.054 32.4193 248.463 32.7726C248.872 33.1259 249.631 33.2992 250.738 33.2992H254.609L252.632 38.5715H247.654C245.222 38.5715 243.456 38.081 242.358 37.1021C241.259 36.121 240.922 34.5571 241.345 32.4126C241.504 31.6002 241.731 30.8239 242.023 30.0813L248.333 13.155H244.739L246.637 7.99513H250.287L253.108 0.391543H259.467L256.646 7.99513H264.002L262.104 13.155H254.694L248.382 30.0791Z" fill="white"/>
</g>
<defs>
<clipPath id="clip0_283_6715">
<rect width="264" height="43" fill="white"/>
</clipPath>
</defs>
</svg>
