<svg width="32" height="32" viewBox="0 0 32 32" fill="none" xmlns="http://www.w3.org/2000/svg">
<path d="M23.6411 16.2799C23.6412 15.702 23.8594 15.1455 24.2521 14.7217C24.6448 14.2978 25.1831 14.0378 25.7592 13.9936C25.807 13.9899 25.8516 13.9681 25.8841 13.9328C25.9165 13.8976 25.9345 13.8513 25.9342 13.8034L25.936 10.7369C25.936 10.6862 25.9158 10.6376 25.88 10.6018C25.8442 10.566 25.7956 10.5459 25.745 10.5459L20.86 10.5459C20.6798 10.5459 20.502 10.5878 20.3409 10.6685C20.1796 10.7495 20.0016 10.7919 19.8211 10.7922C19.6406 10.7925 19.4625 10.7507 19.3009 10.6702C19.1396 10.5895 18.9618 10.5474 18.7814 10.5473L6.255 10.5459C6.20435 10.5459 6.15578 10.566 6.11997 10.6018C6.08416 10.6376 6.06403 10.6862 6.06402 10.7369L6.06402 13.8016C6.06381 13.8496 6.08173 13.8958 6.11418 13.9311C6.14664 13.9664 6.19123 13.9881 6.23903 13.9919C6.81541 14.0357 7.35398 14.2956 7.74693 14.7195C8.13988 15.1434 8.35821 15.7001 8.35821 16.2782C8.35821 16.8562 8.13988 17.4129 7.74693 17.8368C7.35398 18.2608 6.81541 18.5206 6.23903 18.5644C6.19123 18.5682 6.14664 18.5899 6.11418 18.6252C6.08173 18.6605 6.06381 18.7067 6.06402 18.7547L6.06402 21.8194C6.06403 21.8701 6.08416 21.9187 6.11997 21.9545C6.15578 21.9903 6.20435 22.0104 6.255 22.0104L18.7831 22.0108C18.9635 22.0106 19.1413 21.9685 19.3026 21.8878C19.4639 21.8068 19.6419 21.7644 19.8224 21.7641C20.0029 21.7638 20.181 21.8056 20.3426 21.8861C20.5038 21.9667 20.6815 22.0087 20.8617 22.0087L25.7467 22.0087C25.7974 22.0087 25.846 21.9885 25.8818 21.9527C25.9176 21.9169 25.9377 21.8683 25.9377 21.8177L25.9377 18.7529C25.9379 18.705 25.92 18.6587 25.8876 18.6235C25.8551 18.5882 25.8105 18.5664 25.7627 18.5627C25.1865 18.5194 24.6479 18.2603 24.2546 17.837C23.8612 17.4138 23.6421 16.8577 23.6411 16.2799Z" stroke="#8C8C8C" stroke-miterlimit="10"/>
<path d="M20.2426 12.0355L19.5355 11.3284" stroke="#8C8C8C" stroke-miterlimit="10" stroke-linecap="round"/>
<path d="M19.5355 15.5711L19.5355 14.1569" stroke="#8C8C8C" stroke-miterlimit="10" stroke-linecap="round"/>
<path d="M19.5355 18.3994V16.9852" stroke="#8C8C8C" stroke-miterlimit="10" stroke-linecap="round"/>
<path d="M19.5355 21.2279L20.2426 20.5208" stroke="#8C8C8C" stroke-miterlimit="10" stroke-linecap="round"/>
</svg>
