<svg width="31" height="25" viewBox="0 0 31 25" fill="none" xmlns="http://www.w3.org/2000/svg">
<path d="M22.5911 14.4638C23.1752 14.4711 23.7549 14.3612 24.2959 14.1408C24.8369 13.9204 25.3283 13.5939 25.7411 13.1805L29.8682 9.05341C30.1398 8.78017 30.2922 8.41056 30.2922 8.02529C30.2922 7.64001 30.1398 7.2704 29.8682 6.99716C29.7326 6.86047 29.5713 6.75198 29.3936 6.67794C29.2159 6.60391 29.0253 6.56579 28.8328 6.56579C28.6402 6.56579 28.4496 6.60391 28.2719 6.67794C28.0942 6.75198 27.9329 6.86047 27.7973 6.99716L23.6265 11.1097C23.4909 11.2463 23.3296 11.3548 23.1519 11.4289C22.9742 11.5029 22.7836 11.541 22.5911 11.541C22.3986 11.541 22.208 11.5029 22.0302 11.4289C21.8525 11.3548 21.6912 11.2463 21.5557 11.1097L26.7182 5.96174C26.8541 5.82577 26.962 5.66435 27.0356 5.48669C27.1092 5.30903 27.1471 5.11862 27.1471 4.92633C27.1471 4.73403 27.1092 4.54362 27.0356 4.36596C26.962 4.18831 26.8541 4.02688 26.7182 3.89091C26.5822 3.75494 26.4208 3.64708 26.2431 3.57349C26.0655 3.4999 25.875 3.46203 25.6828 3.46203C25.4905 3.46203 25.3 3.4999 25.1224 3.57349C24.9447 3.64708 24.7833 3.75494 24.6473 3.89091L19.4994 9.05341C19.2278 8.78017 19.0753 8.41056 19.0753 8.02529C19.0753 7.64001 19.2278 7.2704 19.4994 6.99716L23.6265 2.87008C23.7625 2.73411 23.8703 2.57268 23.9439 2.39502C24.0175 2.21737 24.0554 2.02696 24.0554 1.83466C24.0554 1.64237 24.0175 1.45196 23.9439 1.2743C23.8703 1.09664 23.7625 0.935218 23.6265 0.799245C23.4905 0.663272 23.3291 0.555413 23.1515 0.481825C22.9738 0.408237 22.7834 0.370361 22.5911 0.370361C22.3988 0.370361 22.2084 0.408237 22.0307 0.481825C21.8531 0.555413 21.6916 0.663272 21.5557 0.799245L17.4286 4.92633C16.6093 5.74664 16.1491 6.85862 16.1491 8.01799C16.1491 9.17737 16.6093 10.2893 17.4286 11.1097L15.5328 12.9909L3.47234 0.886745L3.32651 0.799245C3.25196 0.734203 3.16847 0.680182 3.07859 0.638828L2.81609 0.536745L2.64109 0.420078H2.24734C2.16039 0.406175 2.07179 0.406175 1.98484 0.420078C1.89656 0.452212 1.81313 0.496378 1.73692 0.551328L1.50359 0.697162H1.40151L1.31401 0.842995C1.25228 0.919993 1.19854 1.00306 1.15359 1.09091C1.11088 1.17984 1.0767 1.27261 1.05151 1.368C1.05151 1.368 1.05151 1.47008 1.05151 1.52841C0.697622 3.99505 0.923247 6.51022 1.71049 8.87449C2.49774 11.2388 3.82496 13.3871 5.58692 15.1492L9.43692 18.9847L1.54734 26.8597C1.41065 26.9952 1.30216 27.1565 1.22812 27.3342C1.15409 27.5119 1.11597 27.7026 1.11597 27.8951C1.11597 28.0876 1.15409 28.2782 1.22812 28.4559C1.30216 28.6336 1.41065 28.7949 1.54734 28.9305C1.68361 29.0656 1.84521 29.1726 2.02289 29.2452C2.20057 29.3177 2.39083 29.3545 2.58276 29.3534C2.77468 29.3545 2.96494 29.3177 3.14262 29.2452C3.3203 29.1726 3.48191 29.0656 3.61817 28.9305L12.4703 20.2097L16.5973 16.0826L19.514 13.1659C20.3277 13.9884 21.4341 14.4551 22.5911 14.4638ZM11.4348 17.118L7.59942 13.268C5.49717 11.137 4.18087 8.35525 3.86609 5.37841L13.5057 15.0034L11.4348 17.118ZM20.5348 17.9492C20.2602 17.6727 19.887 17.5166 19.4973 17.5152C19.1076 17.5138 18.7333 17.6673 18.4567 17.9419C18.1802 18.2166 18.024 18.5898 18.0227 18.9795C18.0213 19.3692 18.1748 19.7435 18.4494 20.0201L27.6369 29.2076C27.9155 29.461 28.2813 29.5969 28.6578 29.5867C28.8497 29.5878 29.0399 29.5511 29.2176 29.4785C29.3953 29.4059 29.5569 29.299 29.6932 29.1638C29.8299 29.0282 29.9383 28.867 30.0124 28.6892C30.0864 28.5115 30.1245 28.3209 30.1245 28.1284C30.1245 27.9359 30.0864 27.7453 30.0124 27.5676C29.9383 27.3899 29.8299 27.2286 29.6932 27.093L20.5348 17.9492Z" fill="white"/>
</svg>
