<svg width="39" height="23" viewBox="0 0 39 23" fill="none" xmlns="http://www.w3.org/2000/svg">
<path d="M13.0284 15.3745C17.3196 15.3745 16.6906 12.6517 19.4827 12.6277C22.3629 12.6529 21.6364 15.3745 25.9763 15.3745C28.6351 15.3745 29.7488 14.1109 30.1882 13.6703L20.6825 5.70161C20.9053 5.58569 22.826 4.45243 25.7773 4.45243C26.6283 4.45243 27.4821 4.54832 28.3182 4.74139L30.9309 5.34841C31.0908 5.38607 31.2543 5.40512 31.4184 5.40517C32.4956 5.40517 33.5823 4.52594 33.5823 3.20607C33.5823 2.20535 32.9032 1.30004 31.9005 1.06736L29.2877 0.460343C28.137 0.193817 26.9603 0.0594278 25.78 0.0597137C17.6486 0.0597137 13.7691 5.95351 13.7217 6.10107L12.128 8.05103C10.7062 9.97284 9.98172 12.2035 9.81923 14.5303C10.6655 15.0588 11.803 15.3745 13.0284 15.3745ZM39 20.6595C39 19.6204 38.2674 18.6972 37.2227 18.503C33.9377 17.8929 34.1422 16.4796 32.5105 16.4796C30.8165 16.4796 30.3988 18.6615 25.9986 18.6615C22.7089 18.6615 21.0752 17.1474 21.0305 17.109C20.6147 16.6864 20.065 16.4783 19.5125 16.4783C17.8368 16.4783 17.3737 18.6616 12.9993 18.6616C9.70955 18.6616 8.07786 17.1496 8.02911 17.1111C7.61442 16.6886 7.06093 16.4766 6.50846 16.4766C5.96195 16.4766 5.41706 16.6843 4.99323 17.0875C3.02911 18.8892 0 17.9482 0 20.6621C0 21.7658 0.86459 22.8633 2.14692 22.8633C2.8084 22.8633 4.83141 22.3595 6.49763 21.3643C7.82194 22.1558 9.98172 23 13.0014 23C16.021 23 18.1808 22.0995 19.501 21.3074C20.8233 22.0988 22.9858 22.9952 26.0007 22.9952C29.0196 22.9952 31.1842 22.0967 32.5044 21.3054C34.1774 22.3054 36.2106 22.8037 36.8538 22.8037C38.1334 22.8627 39 21.7783 39 20.6595ZM6.44076 8.78544C8.83412 8.78544 10.7739 6.81901 10.7739 4.39272C10.7739 1.96643 8.83412 0 6.44076 0C4.04739 0 2.10765 1.96643 2.10765 4.39272C2.10765 6.81558 4.10833 8.78544 6.44076 8.78544Z" fill="white"/>
</svg>
