<svg width="31" height="31" viewBox="0 0 31 31" fill="none" xmlns="http://www.w3.org/2000/svg">
<path d="M15.5 7.75001H11.625C11.2824 7.75001 10.9539 7.8861 10.7116 8.12833C10.4694 8.37057 10.3333 8.69911 10.3333 9.04168V21.9583C10.3333 22.3009 10.4694 22.6295 10.7116 22.8717C10.9539 23.1139 11.2824 23.25 11.625 23.25C11.9676 23.25 12.2961 23.1139 12.5383 22.8717C12.7806 22.6295 12.9166 22.3009 12.9166 21.9583V18.0833H15.5C16.8703 18.0833 18.1844 17.539 19.1534 16.5701C20.1223 15.6011 20.6666 14.287 20.6666 12.9167C20.6666 11.5464 20.1223 10.2322 19.1534 9.26329C18.1844 8.29435 16.8703 7.75001 15.5 7.75001ZM15.5 15.5H12.9166V10.3333H15.5C16.1851 10.3333 16.8422 10.6055 17.3267 11.09C17.8111 11.5745 18.0833 12.2315 18.0833 12.9167C18.0833 13.6018 17.8111 14.2589 17.3267 14.7434C16.8422 15.2278 16.1851 15.5 15.5 15.5ZM24.5416 2.58334H6.45831C5.4306 2.58334 4.44498 2.9916 3.71827 3.7183C2.99157 4.44501 2.58331 5.43063 2.58331 6.45834V24.5417C2.58331 25.5694 2.99157 26.555 3.71827 27.2817C4.44498 28.0084 5.4306 28.4167 6.45831 28.4167H24.5416C25.5694 28.4167 26.555 28.0084 27.2817 27.2817C28.0084 26.555 28.4166 25.5694 28.4166 24.5417V6.45834C28.4166 5.43063 28.0084 4.44501 27.2817 3.7183C26.555 2.9916 25.5694 2.58334 24.5416 2.58334ZM25.8333 24.5417C25.8333 24.8842 25.6972 25.2128 25.455 25.455C25.2128 25.6973 24.8842 25.8333 24.5416 25.8333H6.45831C6.11574 25.8333 5.7872 25.6973 5.54497 25.455C5.30273 25.2128 5.16665 24.8842 5.16665 24.5417V6.45834C5.16665 6.11577 5.30273 5.78723 5.54497 5.545C5.7872 5.30276 6.11574 5.16668 6.45831 5.16668H24.5416C24.8842 5.16668 25.2128 5.30276 25.455 5.545C25.6972 5.78723 25.8333 6.11577 25.8333 6.45834V24.5417Z" fill="white"/>
</svg>
